# xmcd CD database file
#
# Track frame offsets:
#	150
#	12270
#	22265
#	36647
#	47385
#	58997
#	69767
#	80377
#	91625
#	103272
#	114915
#	125200
#	136220
#	146327
#	157767
#	170777
#	182959
#	193522
#	203225
#	215342
#	226057
#	239967
#	252945
#	266657
#	277272
#	285910
#
# Disc length: 4163 seconds
#
# Revision: 1
# Processed by: cddbd v1.5.2PL0 Copyright (c) Steve Scherf et al.
# Submitted via: CDex 1.51
#
DISCID=8010411a
DTITLE=Junior Wells - Messin' With The Kid - The Chief - Profile - U.S.A. Sessions 1957-1963
DYEAR=1900
DGENRE=Blues
TTITLE0=Two-Hearted Woman
TTITLE1=Lovey Dovey Lovey One
TTITLE2=I Could Cry
TTITLE3=Cha Cha Cha In Blue
TTITLE4=Little By Little
TTITLE5=Come On In This House
TTITLE6=You Don't Care
TTITLE7=Prison Bars All Around Me
TTITLE8=Calling All Blues
TTITLE9=Galloping Horses A Lazy Mule
TTITLE10=Messin' With The Kid
TTITLE11=You Sure Look Good To Me
TTITLE12=So Tired
TTITLE13=Universal Rock
TTITLE14=I Could Cry
TTITLE15=I'm A Stranger
TTITLE16=The Things I'd Do For You
TTITLE17=Love Me
TTITLE18=It Hurts Me Too
TTITLE19=I Need Me A Car
TTITLE20=I'll Get You Too
TTITLE21=One Day (Every Goodbye Ain't Gone)
TTITLE22=She's A Sweet One
TTITLE23=When The Cat's Gone The Mice Play (Take 1,2,3)
TTITLE24=When The Cat's Gone The Mice Play (Take 4)
TTITLE25=Cha Cha Cha In Blue (In A Session)
EXTD=
EXTT0=
EXTT1=
EXTT2=
EXTT3=
EXTT4=
EXTT5=
EXTT6=
EXTT7=
EXTT8=
EXTT9=
EXTT10=
EXTT11=
EXTT12=
EXTT13=
EXTT14=
EXTT15=
EXTT16=
EXTT17=
EXTT18=
EXTT19=
EXTT20=
EXTT21=
EXTT22=
EXTT23=
EXTT24=
EXTT25=
PLAYORDER=
